Coordinates
version=1
nRows=5
nColumns=40
inDegrees=yes

Units are S.I. units (second, meters, Newtons, ...)
Angles are in degrees.

endheader
time	pelvis_tilt	pelvis_list	pelvis_rotation	pelvis_tx	pelvis_ty	pelvis_tz	hip_flexion_r	hip_adduction_r	hip_rotation_r	knee_angle_r	knee_angle_r_beta	ankle_angle_r	subtalar_angle_r	mtp_angle_r	hip_flexion_l	hip_adduction_l	hip_rotation_l	knee_angle_l	knee_angle_l_beta	ankle_angle_l	subtalar_angle_l	mtp_angle_l	lumbar_extension	lumbar_bending	lumbar_rotation	arm_flex_r	arm_add_r	arm_rot_r	elbow_flex_r	pro_sup_r	wrist_flex_r	wrist_dev_r	arm_flex_l	arm_add_l	arm_rot_l	elbow_flex_l	pro_sup_l	wrist_flex_l	wrist_dev_l
     11.75000000	     -3.22748229	     -2.88436293	     -0.02992070	      0.79152706	      0.92786156	      0.44072853	     28.36960927	     -9.00327249	     -9.27326161	     69.47676268	     69.47676268	      2.23187825	    -19.53082764	     17.85431004	     17.93557032	     -2.74339785	     -3.55748245	     24.49806391	     24.49806391	     12.22844157	    -14.81187054	     -0.28219608	     -9.83111817	      3.27688444	      1.78168112	      4.52439924	    -13.46307512	     -2.17769277	     67.18715388	     44.97200870	      0.00000000	      0.00000000	      6.99088487	    -12.77034911	      0.59562576	     44.47586717	     45.23878929	      0.00000000	      0.00000000
     11.76335714	     -3.20639965	     -2.88200058	     -0.41000583	      0.79084730	      0.92870073	      0.43985579	     29.52919470	     -8.73029861	     -9.03493920	     68.32029226	     68.32029226	      2.88959867	    -19.53636677	     17.99761388	     17.11872096	     -2.73385555	     -3.93897789	     23.98912249	     23.98912249	     12.54339825	    -14.63362149	     -0.40957697	     -9.98521901	      3.41784303	      2.29299381	      2.64640644	    -13.73691149	     -2.08698691	     64.38521648	     45.06280239	      0.00000000	      0.00000000	      8.29129362	    -12.61666940	      0.44750885	     45.67015168	     45.29605822	      0.00000000	      0.00000000
     11.77671429	     -3.20854078	     -2.90895103	     -0.74469196	      0.79022515	      0.92954107	      0.43905006	     30.58283538	     -8.39779528	     -8.86847712	     66.94222211	     66.94222211	      3.56884714	    -19.52935612	     18.36666031	     16.29333251	     -2.74064610	     -4.29080027	     23.39106879	     23.39106879	     12.67097510	    -14.47359171	     -0.81490183	    -10.03068695	      3.54238372	      1.95686884	      2.34173139	    -13.10224679	     -2.51536854	     58.43552401	     45.29800646	      0.00000000	      0.00000000	      8.84286959	    -12.93767298	      0.36020022	     47.47173164	     45.38821905	      0.00000000	      0.00000000
     11.79007143	     -3.18620672	     -2.96686183	     -1.09843461	      0.78961697	      0.93037532	      0.43829057	     31.46397286	     -7.96910807	     -8.68531904	     65.26261039	     65.26261039	      4.03459364	    -19.51319845	     18.30818569	     15.42184802	     -2.75822600	     -4.59417541	     22.75609963	     22.75609963	     12.95454223	    -14.32507722	     -0.83759666	    -10.21084742	      3.78505377	      2.35387930	      0.55583631	    -13.38143188	     -2.31115896	     56.14489156	     45.36377417	      0.00000000	      0.00000000	     10.02230715	    -12.82250003	      0.12545502	     48.75241320	     45.44650247	      0.00000000	      0.00000000
     11.80342857	     -3.26873867	     -3.04525110	     -1.40626077	      0.78895326	      0.93088543	      0.43771884	     32.35323401	     -7.46299282	     -8.51782294	     63.35935758	     63.35935758	      4.46433345	    -19.48343039	     18.23721691	     14.79751975	     -2.81336266	     -4.85272953	     22.33543388	     22.33543388	     13.21502923	    -14.23212576	     -0.88472876	    -10.29036858	      4.02972694	      2.23592916	     -1.07545455	    -13.34670103	     -2.17427815	     54.40930540	     45.41212501	      0.00000000	      0.00000000	     11.00769301	    -13.25391156	     -0.12119077	     49.58355040	     45.49213289	      0.00000000	      0.00000000
